<svg width="85" height="85" viewBox="0 0 85 85" fill="none" xmlns="http://www.w3.org/2000/svg">
<path d="M64.8125 20.2229C64.4848 19.8946 64.0957 19.6341 63.6672 19.4564C63.2388 19.2787 62.7795 19.1872 62.3156 19.1872C61.8518 19.1872 61.3925 19.2787 60.964 19.4564C60.5356 19.6341 60.1464 19.8946 59.8187 20.2229L42.5 37.5062L25.1812 20.1875C24.8534 19.8596 24.4641 19.5995 24.0357 19.422C23.6073 19.2446 23.1481 19.1533 22.6844 19.1533C22.2207 19.1533 21.7615 19.2446 21.3331 19.422C20.9047 19.5995 20.5154 19.8596 20.1875 20.1875C19.8596 20.5154 19.5995 20.9047 19.422 21.3331C19.2446 21.7615 19.1533 22.2207 19.1533 22.6844C19.1533 23.1481 19.2446 23.6073 19.422 24.0357C19.5995 24.4641 19.8596 24.8534 20.1875 25.1812L37.5062 42.5L20.1875 59.8187C19.8596 60.1466 19.5995 60.5359 19.422 60.9643C19.2446 61.3927 19.1533 61.8519 19.1533 62.3156C19.1533 62.7793 19.2446 63.2385 19.422 63.6669C19.5995 64.0953 19.8596 64.4846 20.1875 64.8125C20.5154 65.1404 20.9047 65.4005 21.3331 65.5779C21.7615 65.7554 22.2207 65.8467 22.6844 65.8467C23.1481 65.8467 23.6073 65.7554 24.0357 65.5779C24.4641 65.4005 24.8534 65.1404 25.1812 64.8125L42.5 47.4937L59.8187 64.8125C60.1466 65.1404 60.5359 65.4005 60.9643 65.5779C61.3927 65.7554 61.8519 65.8467 62.3156 65.8467C62.7793 65.8467 63.2385 65.7554 63.6669 65.5779C64.0953 65.4005 64.4846 65.1404 64.8125 64.8125C65.1404 64.4846 65.4005 64.0953 65.5779 63.6669C65.7554 63.2385 65.8467 62.7793 65.8467 62.3156C65.8467 61.8519 65.7554 61.3927 65.5779 60.9643C65.4005 60.5359 65.1404 60.1466 64.8125 59.8187L47.4937 42.5L64.8125 25.1812C66.1583 23.8354 66.1583 21.5687 64.8125 20.2229Z" fill="#69306D"/>
</svg>
